<?xml version="1.0" encoding="UTF-8"?>
<svg version="1.1" xmlns="http://www.w3.org/2000/svg" width="256" height="256">
<path d="M0 0 C84.48 0 168.96 0 256 0 C256 84.48 256 168.96 256 256 C171.52 256 87.04 256 0 256 C0 171.52 0 87.04 0 0 Z " fill="#FEFEFE" transform="translate(0,0)"/>
<path d="M0 0 C7.85798692 6.12897174 12.07792648 14.41102944 14.1875 24 C16.07851912 47.4486371 16.07851912 47.4486371 9.5 56.875 C7.57822054 58.92745062 5.52968209 60.81080014 3.4375 62.6875 C2.89544922 63.18958984 2.35339844 63.69167969 1.79492188 64.20898438 C-2.2401892 67.875 -2.2401892 67.875 -4.5 67.875 C-4.5 68.865 -4.5 69.855 -4.5 70.875 C-5.03367187 71.03355469 -5.56734375 71.19210938 -6.1171875 71.35546875 C-10.45300377 72.71322436 -14.46347242 74.28081406 -18.5 76.375 C-27.45795133 80.92965728 -35.30214632 83.20350451 -45.5 81.875 C-52.22218084 79.59027086 -56.77053802 74.97283716 -61.5 69.875 C-62.799375 68.7303125 -62.799375 68.7303125 -64.125 67.5625 C-72.01548345 58.63379504 -73.94757241 47.79226905 -73.7578125 36.23046875 C-73.28153592 30.03165693 -72.22525916 23.70529858 -68.95703125 18.34375 C-67.36609426 15.97492177 -67.36609426 15.97492177 -67.04296875 13.3359375 C-65.91577266 8.22706316 -61.44787846 5.00976528 -57.5 1.875 C-41.16866264 -8.26645653 -16.85816403 -10.78022062 0 0 Z " fill="#ED2229" transform="translate(111.5,57.125)"/>
<path d="M0 0 C1.22701631 3.68104894 0.33755337 5.01571255 -1.29858398 8.39379883 C-1.65380127 9.08884521 -2.00901855 9.7838916 -2.375 10.5 C-2.73859619 11.21760498 -3.10219238 11.93520996 -3.47680664 12.67456055 C-6.8829857 19.16643115 -11.14937586 24.51813025 -16 30 C-17.4842567 31.85009462 -18.96339959 33.70430301 -20.4375 35.5625 C-26.58833171 43.07423002 -33.44406845 49.79334324 -40.81640625 56.09765625 C-43.00841971 58.00733524 -45.14423603 59.97109869 -47.27514648 61.94848633 C-52.54209724 66.83570139 -57.94976984 71.44674778 -63.55078125 75.953125 C-66.23091255 78.19297955 -68.62863641 80.59141044 -71.04296875 83.10888672 C-73.23654177 85.22857442 -75.56036751 87.07386708 -77.95703125 88.9609375 C-84.47914732 94.25928076 -90.3155384 100.12577076 -96.1875 106.125 C-113.24074849 123.48529775 -113.24074849 123.48529775 -121 128 C-123.25692089 129.7325338 -125.40992843 131.57771173 -127.5625 133.4375 C-128.1702124 133.95812012 -128.7779248 134.47874023 -129.40405273 135.01513672 C-134.1839103 139.16402076 -138.67995276 143.54426238 -143.00415039 148.16577148 C-145.79185578 151.07724287 -148.13259122 152.81110399 -152 154 C-151.67 153.4225 -151.34 152.845 -151 152.25 C-149.72924102 149.80116138 -149.72924102 149.80116138 -150 146 C-148.79760742 144.26757812 -148.79760742 144.26757812 -147.10546875 142.53125 C-146.48486572 141.88349609 -145.8642627 141.23574219 -145.22485352 140.56835938 C-144.55252686 139.88580078 -143.8802002 139.20324219 -143.1875 138.5 C-141.80405285 137.06311077 -140.42124528 135.6256055 -139.0390625 134.1875 C-138.35231445 133.47851562 -137.66556641 132.76953125 -136.95800781 132.0390625 C-134.27150998 129.24135304 -131.66379453 126.37667053 -129.0625 123.5 C-125.41506121 119.50132636 -121.67369946 115.64260936 -117.81640625 111.84765625 C-116.0212377 110.02160308 -114.35074867 108.13385483 -112.6875 106.1875 C-108.96992585 101.85741936 -104.92340403 97.88991218 -100.84375 93.90625 C-98.70340748 91.77194512 -96.71862916 89.54330435 -94.75 87.25 C-89.81664911 81.552706 -84.39518319 76.3494457 -79.02734375 71.06640625 C-74.6901334 66.77096679 -70.5122524 62.43062434 -66.58178711 57.7578125 C-64.26985216 55.18859941 -61.66746993 53.01288395 -59.03515625 50.78125 C-56.92631472 48.9355077 -54.96401458 46.99860583 -53 45 C-49.82547296 41.7822401 -46.53803285 38.77562704 -43.109375 35.83203125 C-40.82370454 33.84688413 -38.60298622 31.7996017 -36.375 29.75 C-31.73582293 25.54956681 -26.88211008 21.68741466 -21.90966797 17.89355469 C-19.26084463 15.8564636 -16.84458438 13.8443438 -14.4765625 11.47265625 C-11.72875346 8.7291813 -8.81283364 6.48856982 -5.6875 4.1875 C-5.13771484 3.78080078 -4.58792969 3.37410156 -4.02148438 2.95507812 C-2.68374453 1.96631389 -1.34226377 0.98261415 0 0 Z " fill="#696969" transform="translate(236,56)"/>
<path d="M0 0 C-1.36690292 3.93948432 -3.13729641 6.6885794 -5.8125 9.875 C-6.616875 10.83535156 -7.42125 11.79570313 -8.25 12.78515625 C-12.36073715 17.60655812 -16.51081606 22.39389384 -20.671875 27.171875 C-23.81941525 30.78734225 -26.94542892 34.42075535 -30.0625 38.0625 C-30.49661697 38.56821533 -30.93073395 39.07393066 -31.37800598 39.5949707 C-33.83596949 42.46107094 -36.28443301 45.33368643 -38.70385742 48.23242188 C-45.57541337 56.42453509 -52.8302023 64.1148653 -60.42871094 71.63452148 C-62.26827459 73.45559087 -64.09947141 75.28477504 -65.9296875 77.11523438 C-71.29553751 82.4645724 -76.66935732 87.74125799 -82.43896484 92.65942383 C-84.45278064 94.38883618 -86.32896756 96.23080276 -88.1875 98.125 C-88.85136719 98.79789062 -89.51523438 99.47078125 -90.19921875 100.1640625 C-90.79347656 100.76992187 -91.38773437 101.37578125 -92 102 C-93.66666667 103.66666667 -95.33333333 105.33333333 -97 107 C-97.57105469 107.59425781 -98.14210937 108.18851562 -98.73046875 108.80078125 C-103.11078306 113.30349955 -107.70961663 117.24760525 -112.66796875 121.1015625 C-114.75390745 122.79966335 -116.59198056 124.54915315 -118.4375 126.5 C-121 129 -121 129 -124 129 C-124.19980469 129.53367188 -124.39960937 130.06734375 -124.60546875 130.6171875 C-126.61978643 134.05901882 -129.38323406 136.45257314 -132.3125 139.125 C-132.88162109 139.66253906 -133.45074219 140.20007813 -134.03710938 140.75390625 C-137.26715888 143.72807353 -139.88919807 145.3977066 -144 147 C-146.02555322 148.66745946 -147.92068185 150.32158457 -149.8125 152.125 C-150.56563477 152.82689453 -150.56563477 152.82689453 -151.33398438 153.54296875 C-152.56189455 154.68901825 -153.78178215 155.84365311 -155 157 C-155 153.37706325 -154.41305433 153.0423251 -152 150.5 C-149.17763014 147.4010379 -146.66880624 144.23581048 -144.25 140.8125 C-139.97040621 134.83752867 -135.28570987 129.28970266 -130.48828125 123.73095703 C-128.94101219 121.93139377 -127.40687132 120.12127647 -125.875 118.30859375 C-116.75721214 107.54463719 -116.75721214 107.54463719 -111.67835999 102.67930603 C-109.98944592 100.98943997 -108.44796829 99.23180513 -106.90014648 97.41235352 C-102.61525579 92.48625741 -98.03061095 87.88689098 -93.41015625 83.27734375 C-92.50680038 82.37303116 -91.60344452 81.46871857 -90.67271423 80.53700256 C-88.77203932 78.63565057 -86.87040392 76.73532447 -84.96704102 74.83666992 C-82.54881608 72.42414139 -80.13511042 70.00714919 -77.72272587 67.58878231 C-75.39181599 65.25335425 -73.05706044 62.92177823 -70.72265625 60.58984375 C-69.86720718 59.73237045 -69.01175812 58.87489716 -68.13038635 57.99143982 C-63.79771675 53.67547281 -59.40854693 49.49955282 -54.74998474 45.53590393 C-52.91820907 43.9282148 -51.20600245 42.2398939 -49.5 40.5 C-46.55399785 37.50765625 -43.47016993 34.74675828 -40.2890625 32.0078125 C-38.0643975 30.05648518 -35.88850699 28.05845513 -33.71948242 26.0456543 C-28.5621112 21.26306575 -23.30159875 16.68529434 -17.8125 12.28125 C-15.76318275 10.61902601 -13.74920252 8.93910394 -11.75 7.21875 C-11.20794922 6.7554126 -10.66589844 6.2920752 -10.10742188 5.81469727 C-8.57826026 4.50455136 -7.05460136 3.18799092 -5.53125 1.87109375 C-3 0 -3 0 0 0 Z " fill="#ED2229" transform="translate(211,49)"/>
<path d="M0 0 C0.79019531 -0.02900391 1.58039063 -0.05800781 2.39453125 -0.08789062 C7.80066974 -0.14635968 10.87309487 0.67256322 15.125 4.3125 C20.21800369 10.31280839 21.63015554 17.60114604 21.125 25.3125 C18.94950025 34.35575386 11.61651102 42.17126695 4.125 47.3125 C-2.02818766 50.02032402 -8.36237349 51.54834889 -14.875 49.3125 C-18.2181419 47.32607836 -21.01634464 44.93758849 -23.875 42.3125 C-24.59042969 41.67699219 -25.30585937 41.04148438 -26.04296875 40.38671875 C-31.1498845 35.60557248 -36.19397303 30.01233449 -37.23046875 22.859375 C-36.75559174 19.45695953 -35.37927627 17.87121857 -33.1875 15.25 C-32.50300781 14.41339844 -31.81851563 13.57679687 -31.11328125 12.71484375 C-27.27802451 8.59846872 -23.45289927 5.89135128 -18.3125 3.625 C-17.38308594 3.20863281 -16.45367187 2.79226562 -15.49609375 2.36328125 C-10.28424122 0.27387986 -5.55805663 0.06734317 0 0 Z " fill="#FEFCFC" transform="translate(95.875,73.6875)"/>
<path d="M0 0 C2.31 0 4.62 0 7 0 C8.32 4.29 9.64 8.58 11 13 C11.99 8.71 12.98 4.42 14 0 C16.64 0 19.28 0 22 0 C22 7.59 22 15.18 22 23 C20.35 23 18.7 23 17 23 C16.67 19.37 16.34 15.74 16 12 C15.01 15.63 14.02 19.26 13 23 C11.35 23 9.7 23 8 23 C7.01 18.71 6.02 14.42 5 10 C4.67 14.29 4.34 18.58 4 23 C2.68 23 1.36 23 0 23 C0 15.41 0 7.82 0 0 Z " fill="#4B5E6A" transform="translate(196,214)"/>
<path d="M0 0 C1.65 0 3.3 0 5 0 C7.29612756 9.41002278 7.29612756 9.41002278 7 14 C7.66 14 8.32 14 9 14 C9.04898438 13.40832031 9.09796875 12.81664062 9.1484375 12.20703125 C9.56456867 7.80895528 10.04965595 4.03071103 12 0 C13.98 0 15.96 0 18 0 C18.99 3.96 19.98 7.92 21 12 C21.28875 10.948125 21.5775 9.89625 21.875 8.8125 C22.77225193 5.77181289 23.76423419 2.91287656 25 0 C26.32 0 27.64 0 29 0 C27 20 27 20 24 23 C22.35 23 20.7 23 19 23 C17.68 18.05 16.36 13.1 15 8 C13.72500295 12.5613675 13.72500295 12.5613675 12.45727539 17.12475586 C11.11111111 21.88888889 11.11111111 21.88888889 10 23 C8.33382885 23.04063832 6.66611905 23.042721 5 23 C4.16089611 19.73061914 3.32971667 16.45927466 2.5 13.1875 C2.26152344 12.25873047 2.02304688 11.32996094 1.77734375 10.37304688 C1.55175781 9.48037109 1.32617188 8.58769531 1.09375 7.66796875 C0.88427734 6.84578857 0.67480469 6.0236084 0.45898438 5.17651367 C0 3 0 3 0 0 Z " fill="#4F616D" transform="translate(120,214)"/>
<path d="M0 0 C0.79019531 0.00902344 1.58039063 0.01804687 2.39453125 0.02734375 C3.28205078 0.04474609 3.28205078 0.04474609 4.1875 0.0625 C1.96736049 2.28263951 0.4922195 2.77848135 -2.4375 3.8125 C-10.22650903 6.84717884 -15.84593764 11.39311626 -20.8125 18.0625 C-21.410625 18.805 -22.00875 19.5475 -22.625 20.3125 C-25.53191628 27.04430613 -23.76601413 34.28265686 -21.8125 41.0625 C-21.46584443 42.72644675 -21.12573028 44.39193851 -20.8125 46.0625 C-19.8225 46.0625 -18.8325 46.0625 -17.8125 46.0625 C-17.4825 48.3725 -17.1525 50.6825 -16.8125 53.0625 C-22.45467386 48.6235563 -27.47972776 44.06081673 -29.8125 37.0625 C-29.93315456 34.96086585 -29.98786009 32.85505967 -30 30.75 C-30.01417969 29.64011719 -30.02835938 28.53023437 -30.04296875 27.38671875 C-29.50756187 19.66415514 -25.86431996 13.75140561 -20.8125 8.0625 C-14.19073901 2.81435181 -8.50027368 -0.12686976 0 0 Z " fill="#FDF0F1" transform="translate(76.8125,64.9375)"/>
<path d="M0 0 C1.65 0 3.3 0 5 0 C7.01953125 2.625 7.01953125 2.625 8.8125 6 C9.41707031 7.11375 10.02164063 8.2275 10.64453125 9.375 C11.09183594 10.24125 11.53914062 11.1075 12 12 C12.33 8.04 12.66 4.08 13 0 C14.65 0 16.3 0 18 0 C18 7.59 18 15.18 18 23 C16.35 23 14.7 23 13 23 C11.28008486 20.81483731 10.00555697 18.9060167 8.6875 16.5 C8.32849609 15.87996094 7.96949219 15.25992188 7.59960938 14.62109375 C6.71641324 13.09022045 5.85596697 11.54626292 5 10 C4.67 14.29 4.34 18.58 4 23 C2.68 23 1.36 23 0 23 C0 15.41 0 7.82 0 0 Z " fill="#52646F" transform="translate(173,214)"/>
<path d="M0 0 C12.21934594 -0.49371095 12.21934594 -0.49371095 15.890625 1.828125 C18 4 18 4 18.5625 7 C18 10 18 10 16.5625 12.375 C12.67632781 14.83940188 9.54866791 14.2675687 5 14 C5 16.97 5 19.94 5 23 C3.35 23 1.7 23 0 23 C0 15.41 0 7.82 0 0 Z " fill="#536571" transform="translate(222,214)"/>
<path d="M0 0 C2.5625 1.25 2.5625 1.25 4 3 C4 4.32 4 5.64 4 7 C2.68 7 1.36 7 0 7 C-0.33 6.34 -0.66 5.68 -1 5 C-2.98 5 -4.96 5 -7 5 C-7 5.66 -7 6.32 -7 7 C-6.30132812 7.26554688 -5.60265625 7.53109375 -4.8828125 7.8046875 C-3.51769531 8.33449219 -3.51769531 8.33449219 -2.125 8.875 C-0.76761719 9.39707031 -0.76761719 9.39707031 0.6171875 9.9296875 C3 11 3 11 5 13 C5.45409879 16.48142404 5.39476404 18.34778115 3.5625 21.375 C-0.22501534 23.776839 -3.6394375 23.91556294 -8 23 C-11.0625 20.6875 -11.0625 20.6875 -13 18 C-13 17.01 -13 16.02 -13 15 C-11.35 15 -9.7 15 -8 15 C-7.67 15.99 -7.34 16.98 -7 18 C-5.02 18 -3.04 18 -1 18 C-0.67 17.01 -0.34 16.02 0 15 C-0.61488281 14.81824219 -1.22976562 14.63648438 -1.86328125 14.44921875 C-2.67152344 14.19785156 -3.47976562 13.94648438 -4.3125 13.6875 C-5.11300781 13.44386719 -5.91351563 13.20023438 -6.73828125 12.94921875 C-9.14941441 11.9372924 -10.40107243 11.05576402 -12 9 C-12.64271323 3.85829416 -12.64271323 3.85829416 -10.75390625 1.3359375 C-7.55709788 -1.09904794 -3.83178985 -0.51182752 0 0 Z " fill="#4F616D" transform="translate(164,214)"/>
<path d="M0 0 C0.66 0.33 1.32 0.66 2 1 C2.44580738 2.44384068 2.83332221 3.90599413 3.1875 5.375 C4.41258448 9.31902197 4.62295859 9.78748575 8.4375 11.9375 C9.613125 12.288125 10.78875 12.63875 12 13 C13.34013497 13.65288627 14.67741528 14.31225595 16 15 C15.34 16.32 14.68 17.64 14 19 C12.02 19 10.04 19 8 19 C7.67 17.68 7.34 16.36 7 15 C5.35 15 3.7 15 2 15 C3.68807908 19.23084903 3.68807908 19.23084903 7 22 C9.10854036 22.2352732 9.10854036 22.2352732 11.4375 22.25 C12.21996094 22.27578125 13.00242188 22.3015625 13.80859375 22.328125 C16.52766211 21.92099177 17.35382891 21.16251669 19 19 C19.72197162 16.39388923 19.72197162 16.39388923 20 14 C22 17 22 17 21.875 19.5 C20.78989397 22.60030294 19.79048388 23.32093961 17 25 C13.272802 25.66656298 9.73506767 25.60777728 6 25 C2.8125 22.625 2.8125 22.625 1 20 C1 19.34 1 18.68 1 18 C-0.65 18.33 -2.3 18.66 -4 19 C-2.89309248 12.59406714 -1.66054831 6.28636144 0 0 Z " fill="#EDEEEF" transform="translate(149,214)"/>
<path d="M0 0 C2.64 0 5.28 0 8 0 C8 7.59 8 15.18 8 23 C6.35 23 4.7 23 3 23 C2.67 18.71 2.34 14.42 2 10 C1.01 10 0.02 10 -1 10 C-0.67 6.7 -0.34 3.4 0 0 Z " fill="#65757F" transform="translate(210,214)"/>
<path d="M0 0 C5.94 0 11.88 0 18 0 C18 1.32 18 2.64 18 4 C15.69 4 13.38 4 11 4 C11 10.27 11 16.54 11 23 C9.68 23 8.36 23 7 23 C7 16.73 7 10.46 7 4 C4.69 4 2.38 4 0 4 C0 2.68 0 1.36 0 0 Z " fill="#4D5F6B" transform="translate(101,214)"/>
<path d="M0 0 C0.33 0 0.66 0 1 0 C1 7.59 1 15.18 1 23 C2.32 23 3.64 23 5 23 C5 17.72 5 12.44 5 7 C8.21764451 11.82646677 9.36261136 17.19821824 9 23 C10.65 23 12.3 23 14 23 C14.12117187 22.24074219 14.24234375 21.48148438 14.3671875 20.69921875 C14.53476563 19.70535156 14.70234375 18.71148437 14.875 17.6875 C15.03742188 16.70136719 15.19984375 15.71523437 15.3671875 14.69921875 C16 12 16 12 18 9 C18 13.62 18 18.24 18 23 C19.98 23 21.96 23 24 23 C24 23.66 24 24.32 24 25 C16 25 8 25 0 25 C0 16.75 0 8.5 0 0 Z " fill="#D3D5D6" transform="translate(195,214)"/>
<path d="M0 0 C1.96301592 3.50538557 2.95902388 7.13351728 4 11 C4.66 9.68 5.32 8.36 6 7 C6.99 7.33 7.98 7.66 9 8 C8.01 12.29 7.02 16.58 6 21 C4.35 21 2.7 21 1 21 C0.01 16.38 -0.98 11.76 -2 7 C-1.34 7 -0.68 7 0 7 C0 4.69 0 2.38 0 0 Z " fill="#51646F" transform="translate(203,216)"/>
<path d="M0 0 C2 3 2 3 2 6 C-0.64 6 -3.28 6 -6 6 C-5.67 12.27 -5.34 18.54 -5 25 C-7.31 25 -9.62 25 -12 25 C-12 18.73 -12 12.46 -12 6 C-14.31 6 -16.62 6 -19 6 C-19 5.34 -19 4.68 -19 4 C-16.36 4 -13.72 4 -11 4 C-11 10.27 -11 16.54 -11 23 C-9.68 23 -8.36 23 -7 23 C-7 16.73 -7 10.46 -7 4 C-4.69 4 -2.38 4 0 4 C0 2.68 0 1.36 0 0 Z " fill="#CBCDCE" transform="translate(119,214)"/>
<path d="M0 0 C0.66 0.33 1.32 0.66 2 1 C2.02887236 4.81248426 2.04675492 8.6249407 2.0625 12.4375 C2.07087891 13.52611328 2.07925781 14.61472656 2.08789062 15.73632812 C2.09111328 16.77080078 2.09433594 17.80527344 2.09765625 18.87109375 C2.10289307 19.82943115 2.10812988 20.78776855 2.11352539 21.77514648 C2 24 2 24 1 25 C-1.81640625 25.36328125 -1.81640625 25.36328125 -5 25 C-7.15234375 22.91796875 -7.15234375 22.91796875 -8.9375 20.1875 C-9.54464844 19.29417969 -10.15179688 18.40085938 -10.77734375 17.48046875 C-12 15 -12 15 -11 12 C-9.9944239 13.45449401 -8.99569565 14.91372443 -8 16.375 C-7.443125 17.18710938 -6.88625 17.99921875 -6.3125 18.8359375 C-5 21 -5 21 -5 23 C-3.35 23 -1.7 23 0 23 C0 15.41 0 7.82 0 0 Z " fill="#DCDDDD" transform="translate(191,214)"/>
<path d="M0 0 C2 3 2 3 1.875 5.5 C0.78989397 8.60030294 -0.20951612 9.32093961 -3 11 C-8.34497264 11.95588184 -12.66785476 11.91421732 -17.1875 8.8125 C-19.11365965 5.82363158 -19.49602754 4.47219276 -19 1 C-18.01 2.485 -18.01 2.485 -17 4 C-15.50277911 6.33211068 -15.50277911 6.33211068 -13 8 C-9.93826395 8.51028934 -7.046352 8.62273494 -4 8 C-1.02524128 5.66843235 -0.50094846 3.70701864 0 0 Z " fill="#C8CACB" transform="translate(169,228)"/>
<path d="M0 0 C1.32 0 2.64 0 4 0 C3 8.57142857 3 8.57142857 2 12 C0.35 12.33 -1.3 12.66 -3 13 C-2.69240822 11.02006459 -2.3787932 9.04106401 -2.0625 7.0625 C-1.88847656 5.96035156 -1.71445313 4.85820312 -1.53515625 3.72265625 C-1 1 -1 1 0 0 Z " fill="#546671" transform="translate(145,214)"/>
<path d="M0 0 C0.33 0 0.66 0 1 0 C1 7.26 1 14.52 1 22 C0.01 22 -0.98 22 -2 22 C-2 16.72 -2 11.44 -2 6 C-1.67 6 -1.34 6 -1 6 C-0.67 4.02 -0.34 2.04 0 0 Z " fill="#455965" transform="translate(216,215)"/>
<path d="M0 0 C0.33 0 0.66 0 1 0 C1 7.59 1 15.18 1 23 C2.32 23 3.64 23 5 23 C5 18.38 5 13.76 5 9 C7 11 7 11 7.1953125 14.2578125 C7.16050781 16.17207031 7.16050781 16.17207031 7.125 18.125 C7.10695312 19.40632813 7.08890625 20.68765625 7.0703125 22.0078125 C7.04710937 22.99523437 7.02390625 23.98265625 7 25 C4.69 25 2.38 25 0 25 C0 16.75 0 8.5 0 0 Z " fill="#CDD0D2" transform="translate(172,214)"/>
<path d="M0 0 C1.98 0 3.96 0 6 0 C6.33 0.99 6.66 1.98 7 3 C8.32 3 9.64 3 11 3 C11.33 2.01 11.66 1.02 12 0 C12.33 1.65 12.66 3.3 13 5 C7.0819503 6.32854177 4.22270869 5.66464729 -1 3 C-0.67 2.01 -0.34 1.02 0 0 Z " fill="#CECFD1" transform="translate(157,218)"/>
<path d="M0 0 C0.66 0.66 1.32 1.32 2 2 C0.989375 2.825 -0.02125 3.65 -1.0625 4.5 C-4.61070956 7.50842109 -7.51715957 10.83682993 -10.421875 14.4609375 C-12 16 -12 16 -15 16 C-13.68 14.68 -12.36 13.36 -11 12 C-11.33 11.34 -11.66 10.68 -12 10 C-11.21753906 9.36191406 -10.43507813 8.72382813 -9.62890625 8.06640625 C-8.61699219 7.24011719 -7.60507813 6.41382813 -6.5625 5.5625 C-5.55316406 4.73878906 -4.54382813 3.91507813 -3.50390625 3.06640625 C-1.70216039 1.58798996 -1.70216039 1.58798996 0 0 Z " fill="#D1D1D1" transform="translate(117,181)"/>
<path d="M0 0 C1.65 0 3.3 0 5 0 C6.25 7.625 6.25 7.625 4 11 C3.01 11.495 3.01 11.495 2 12 C1.34 8.04 0.68 4.08 0 0 Z " fill="#546671" transform="translate(120,214)"/>
<path d="M0 0 C2.875 -0.125 2.875 -0.125 6 0 C6.66 0.66 7.32 1.32 8 2 C7.625 4.125 7.625 4.125 7 6 C4.69 6 2.38 6 0 6 C0 4.02 0 2.04 0 0 Z " fill="#CED0D1" transform="translate(227,218)"/>
<path d="M0 0 C7.48116133 0.28230797 12.65074114 3.18344183 19 7 C19 7.99 19 8.98 19 10 C18.04738281 9.51789063 17.09476563 9.03578125 16.11328125 8.5390625 C14.84640841 7.90093396 13.57947829 7.26291914 12.3125 6.625 C11.68666016 6.30789062 11.06082031 5.99078125 10.41601562 5.6640625 C6.99635299 3.94527919 3.57992926 2.35530783 0 1 C0 0.67 0 0.34 0 0 Z " fill="#FAC5C7" transform="translate(90,56)"/>
<path d="M0 0 C2 3 2 3 2 6 C-0.64 6 -3.28 6 -6 6 C-6 11.61 -6 17.22 -6 23 C-6.33 23 -6.66 23 -7 23 C-7 16.73 -7 10.46 -7 4 C-4.69 4 -2.38 4 0 4 C0 2.68 0 1.36 0 0 Z " fill="#A8AFB4" transform="translate(119,214)"/>
<path d="M0 0 C0.99 0.66 1.98 1.32 3 2 C1.44499019 5.81684226 -1.03595495 8.19195732 -4 11 C-4.66 9.68 -5.32 8.36 -6 7 C-4.02 4.69 -2.04 2.38 0 0 Z " fill="#C9C9C9" transform="translate(84,204)"/>
<path d="M0 0 C2 3 2 3 2 7 C4.44480079 6.81171228 4.44480079 6.81171228 7 6 C8.36020151 4.03241727 8.36020151 4.03241727 9 2 C9.93423645 5.01031744 10.04449911 5.86650268 9 9 C6.36 9 3.72 9 1 9 C0.67 6.03 0.34 3.06 0 0 Z " fill="#CCCECF" transform="translate(123,230)"/>
<path d="M0 0 C0.66 0.433125 1.32 0.86625 2 1.3125 C5.57714956 3.32464663 9.13490142 4.62428695 13 6 C13 6.66 13 7.32 13 8 C11.22483971 7.60217121 9.45490837 7.18096339 7.6875 6.75 C6.70136719 6.51796875 5.71523437 6.2859375 4.69921875 6.046875 C1.65580355 4.86650557 0.66584638 3.75177354 -1 1 C-0.67 0.67 -0.34 0.34 0 0 Z " fill="#BCBEC0" transform="translate(152,223)"/>
<path d="M0 0 C0.66 0.33 1.32 0.66 2 1 C2.59355614 3.64860427 2.74209269 6.29197322 3 9 C2.01 8.67 1.02 8.34 0 8 C-0.33 8.99 -0.66 9.98 -1 11 C-2.60080151 6.99799622 -1.29279692 3.95443764 0 0 Z " fill="#D1D4D5" transform="translate(134,221)"/>
<path d="M0 0 C4.455 0.99 4.455 0.99 9 2 C9 2.99 9 3.98 9 5 C7.02 5 5.04 5 3 5 C2.87625 4.360625 2.7525 3.72125 2.625 3.0625 C2.315625 2.0415625 2.315625 2.0415625 2 1 C1.34 0.67 0.68 0.34 0 0 Z " fill="#F5F5F6" transform="translate(154,228)"/>
<path d="M0 0 C0.66 0 1.32 0 2 0 C0.125 3.875 0.125 3.875 -1 5 C-2.51928038 5.07179964 -4.04167482 5.08392007 -5.5625 5.0625 C-6.38878906 5.05347656 -7.21507812 5.04445312 -8.06640625 5.03515625 C-8.70449219 5.02355469 -9.34257812 5.01195312 -10 5 C-10.33 4.34 -10.66 3.68 -11 3 C-10.37351563 2.95101562 -9.74703125 2.90203125 -9.1015625 2.8515625 C-8.28429687 2.77679688 -7.46703125 2.70203125 -6.625 2.625 C-5.81289062 2.55539063 -5.00078125 2.48578125 -4.1640625 2.4140625 C-1.79665809 2.17107412 -1.79665809 2.17107412 0 0 Z " fill="#BCBEC0" transform="translate(238,225)"/>
<path d="M0 0 C0.33 0 0.66 0 1 0 C1 1.65 1 3.3 1 5 C2.65 5 4.3 5 6 5 C6.33 4.01 6.66 3.02 7 2 C7.5625 3.9375 7.5625 3.9375 8 6 C7 7 7 7 4 7.125 C1 7 1 7 0 6 C-0.04080783 4.00041636 -0.04254356 1.99954746 0 0 Z " fill="#C5C7C9" transform="translate(203,232)"/>
<path d="M0 0 C2 3 2 3 2 7 C3.98 6.67 5.96 6.34 8 6 C8 6.99 8 7.98 8 9 C5.69 9 3.38 9 1 9 C0.67 6.03 0.34 3.06 0 0 Z " fill="#C1C4C5" transform="translate(137,230)"/>
<path d="M0 0 C0.99 0.33 1.98 0.66 3 1 C2.07347299 2.17539996 1.13336613 3.34010577 0.1875 4.5 C-0.33457031 5.1496875 -0.85664062 5.799375 -1.39453125 6.46875 C-3 8 -3 8 -6 8 C-4.68 6.68 -3.36 5.36 -2 4 C-2.33 3.34 -2.66 2.68 -3 2 C-2.01 1.34 -1.02 0.68 0 0 Z " fill="#E6E6E6" transform="translate(108,189)"/>
<path d="M0 0 C2.29633824 3.44450737 2.54016485 5.93812283 3 10 C2.34 10 1.68 10 1 10 C0.67 10.66 0.34 11.32 0 12 C0 8.04 0 4.08 0 0 Z " fill="#CBCFD2" transform="translate(200,221)"/>
<path d="M0 0 C0 0.66 0 1.32 0 2 C-3.3 2.33 -6.6 2.66 -10 3 C-5.78492722 -0.16130459 -4.93928888 -0.3367697 0 0 Z " fill="#FCDEDF" transform="translate(81,131)"/>
<path d="M0 0 C1.98 0 3.96 0 6 0 C6 0.99 6 1.98 6 3 C3.69 3 1.38 3 -1 3 C-0.67 2.01 -0.34 1.02 0 0 Z " fill="#F9F9F9" transform="translate(228,221)"/>
<path d="M0 0 C0.66 0.33 1.32 0.66 2 1 C2.40729228 3.32156597 2.74438677 5.6568787 3 8 C1.68 7.67 0.36 7.34 -1 7 C-0.67 4.69 -0.34 2.38 0 0 Z " fill="#D1D4D7" transform="translate(149,214)"/>
<path d="M0 0 C2 3 2 3 2 5 C1.01 5 0.02 5 -1 5 C-1.33 5.66 -1.66 6.32 -2 7 C-2.6875 5.1875 -2.6875 5.1875 -3 3 C-1.5625 1.25 -1.5625 1.25 0 0 Z " fill="#E2E3E3" transform="translate(150,219)"/>
</svg>
